<?xml version="1.0" encoding="utf-8"?>
<!-- Svg Vector Icons : http://www.onlinewebfonts.com/icon -->
<!DOCTYPE svg PUBLIC "-//W3C//DTD SVG 1.1//EN" "http://www.w3.org/Graphics/SVG/1.1/DTD/svg11.dtd">
<svg version="1.1" xmlns="http://www.w3.org/2000/svg" xmlns:xlink="http://www.w3.org/1999/xlink" x="0px" y="0px" viewBox="0 0 256 256" enable-background="new 0 0 256 256" xml:space="preserve">
<metadata> Svg Vector Icons : http://www.onlinewebfonts.com/icon </metadata>
<g><g><path fill="#000000" d="M87,60.5c-12,5.7-21.6,15.6-26.9,27.8c-1.5,3.5,0.1,7.7,3.6,9.2c0.9,0.4,1.8,0.6,2.8,0.6c2.7,0,5.3-1.6,6.4-4.2C76.9,84.7,84,77.3,93,73c3.5-1.7,5-5.8,3.3-9.3C94.6,60.3,90.5,58.8,87,60.5L87,60.5z"/><path fill="#000000" d="M158.6,103.1c-3.9,0-7,3.1-7,7c0,22.6-18.4,41-41,41c-3.9,0-7,3.1-7,7c0,3.9,3.1,7,7,7c14.7,0,28.5-5.7,38.8-16.1c10.4-10.4,16.1-24.2,16.1-38.8C165.5,106.2,162.4,103.1,158.6,103.1L158.6,103.1z"/><path fill="#000000" d="M240,211L191,162.1c-0.7-0.7-1.4-1.2-2.2-1.8c9.9-15.2,15.7-33.4,15.7-53c0-53.7-43.5-97.3-97.3-97.3C53.6,10.1,10,53.6,10,107.4c0,53.7,43.6,97.3,97.3,97.3c19.6,0,37.7-5.8,53-15.8c0.6,0.7,1.1,1.5,1.7,2.1l49.1,48.9c4,4,9.2,6,14.5,6c5.3,0,10.5-2,14.5-6C248,231.9,248,219,240,211 M107.3,179.7c-39.9,0-72.3-32.5-72.3-72.3c0-39.9,32.5-72.3,72.3-72.3s72.3,32.5,72.3,72.3C179.6,147.2,147.1,179.7,107.3,179.7"/></g></g>
</svg>